<?xml version="1.0" encoding="utf-8"?>
<!-- Generator: Adobe Illustrator 23.0.1, SVG Export Plug-In . SVG Version: 6.00 Build 0)  -->
<svg version="1.1" id="Layer_1" xmlns="http://www.w3.org/2000/svg" xmlns:xlink="http://www.w3.org/1999/xlink" x="0px" y="0px"
	 width="200px" height="200px" viewBox="0 0 200 200" style="enable-background:new 0 0 200 200;" xml:space="preserve">
<style type="text/css">
	.st0{fill:#FFFFFF;}
	.st1{fill:#F42A41;}
	.st2{fill:#006A4E;}
	.st3{fill:#EE2F43;}
	.st4{fill:#231F20;}
</style>
<g>
	<g>
		<path class="st0" d="M182.9,100.5c0,45.2-36.6,81.9-81.9,81.9s-81.9-36.6-81.9-81.9c0-45.2,36.6-81.9,81.9-81.9
			S182.9,55.3,182.9,100.5z"/>
		<path class="st1" d="M101,183c-45.5,0-82.5-37-82.5-82.5C18.5,55,55.5,18,101,18c45.5,0,82.5,37,82.5,82.5
			C183.5,146,146.5,183,101,183z M101,19.3c-44.8,0-81.2,36.4-81.2,81.2s36.4,81.2,81.2,81.2s81.2-36.4,81.2-81.2
			S145.8,19.3,101,19.3z"/>
	</g>
	<g>
		<g>
			<g>
				<g>
					<path class="st1" d="M60.7,76.1C76,88.6,76.4,99.3,79.1,125.4c3.6-6.2,10-10.4,17.6-13.2c-2.9-18.1-14.6-35.5-19.4-42
						C65.4,72.7,60.7,76.1,60.7,76.1z"/>
					<path class="st2" d="M148.6,107.3c-4.4-3.1-13.6-30.2-15.3-37.8c-26.7-3.3-44.6-1.7-56,0.7c4.8,6.5,16.5,23.9,19.4,42
						C115.1,105.3,140.4,106.5,148.6,107.3z"/>
				</g>
				<g>
					<polygon class="st3" points="112.9,72 113.8,73.8 115.8,74.1 114.4,75.6 114.7,77.6 112.9,76.7 111,77.6 111.4,75.6 
						109.9,74.1 111.9,73.8 					"/>
					<polygon class="st3" points="125.2,72 126.1,73.8 128.2,74.1 126.7,75.6 127.1,77.6 125.2,76.7 123.4,77.6 123.7,75.6 
						122.3,74.1 124.3,73.8 					"/>
					<polygon class="st3" points="116.7,82 117.6,83.9 119.7,84.2 118.2,85.6 118.5,87.7 116.7,86.7 114.8,87.7 115.2,85.6 
						113.7,84.2 115.8,83.9 					"/>
					<polygon class="st3" points="128.8,81.7 129.7,83.6 131.7,83.9 130.3,85.4 130.6,87.4 128.8,86.4 126.9,87.4 127.3,85.4 
						125.8,83.9 127.8,83.6 					"/>
				</g>
			</g>
			<g>
				<g>
					<path class="st2" d="M82.5,146.6c-1.3,0-2.5-0.8-3-2.1l-26.4-72c-0.3-0.8-0.2-1.6,0.1-2.4c0.4-0.8,1-1.3,1.8-1.6
						c0.3-0.1,0.7-0.2,1-0.2c1.3,0,2.5,0.8,3,2.1l26.4,72c0.3,0.8,0.2,1.6-0.1,2.4c-0.4,0.8-1,1.3-1.8,1.6
						C83.2,146.5,82.8,146.6,82.5,146.6z M56.1,68.8c-0.3,0-0.6,0.1-0.9,0.2c-0.7,0.2-1.2,0.7-1.6,1.4c-0.3,0.7-0.4,1.4-0.1,2.1
						l26.4,72c0.4,1.1,1.4,1.8,2.6,1.8c0.3,0,0.6-0.1,0.9-0.2c0.7-0.2,1.2-0.7,1.6-1.4s0.4-1.4,0.1-2.1l-26.4-72
						C58.3,69.5,57.3,68.8,56.1,68.8z"/>
				</g>
				<g>
					<path class="st2" d="M57.1,83.1c-0.1,0-0.1,0-0.2-0.1c-1.3-2.2-1.6-3.9-0.9-5.1c1.2-2,4.5-1.9,4.7-1.9c0.1,0,0.2,0.1,0.2,0.2
						c0,0.1-0.1,0.2-0.2,0.2c0,0-3.3-0.1-4.3,1.7c-0.6,1.1-0.3,2.7,0.9,4.7c0.1,0.1,0,0.2-0.1,0.3C57.2,83,57.1,83.1,57.1,83.1z"/>
				</g>
				<g>
					<path class="st2" d="M75.1,133c-0.1,0-0.1,0-0.2-0.1c-1-1.2-1.3-2.4-1-3.6c0.8-2.7,4.9-4.1,5-4.2c0.1,0,0.2,0,0.3,0.1
						c0,0.1,0,0.2-0.1,0.3c0,0-4.1,1.4-4.8,3.9c-0.3,1,0,2.1,0.9,3.2c0.1,0.1,0.1,0.2,0,0.3C75.2,133,75.2,133,75.1,133z"/>
				</g>
			</g>
		</g>
		<g>
			<g>
				<path class="st2" d="M172.6,115.5c-2.4,2.6-4.7,2.6-6.3,2.7c-3.3-10.3,7.5-15.3,7.5-15.3S175,112.9,172.6,115.5z M172.4,111.5
					c-2.9-0.5-4.9,4.5-4.5,4.5C170.4,115.9,172.3,112.6,172.4,111.5z"/>
				<path class="st2" d="M156.8,124c-9.7-6.6-0.5-18.9-0.5-18.9C163.6,116.9,159.5,121.9,156.8,124z M157.2,114.8
					c-0.7-0.6-2.2,5.4-0.9,6.4C158,119.6,159.4,116.7,157.2,114.8z"/>
				<path class="st2" d="M154.4,132.9c0,0,0.5-11.9,19.7-7.7C170.8,129.4,165.3,138.3,154.4,132.9z M163.5,129.7
					c-2-1.7-5.9,1.6-5.9,1.6C160.7,133.2,162.8,130.8,163.5,129.7z"/>
				<path class="st2" d="M145.6,143.4c-8.2-7.8,4.9-18.9,4.9-18.9C154.4,134.9,149.4,140.3,145.6,143.4z M146.9,133.6
					c-0.5-0.5-2.9,3.8-1.1,6.1C146.7,138.5,148.2,134.9,146.9,133.6z"/>
				<path class="st2" d="M138.8,150.6c0,0,8.2-8.3,19.4-2.7C155.9,150.8,145,158.3,138.8,150.6z M148,150.4
					c-2.6-1.9-6.1,0.6-6.1,0.6C144.2,152.3,146.5,151.5,148,150.4z"/>
				<path class="st2" d="M128.3,155.1c0,0-6.3-11.4,11.3-18.1C138.9,141.5,138.2,151.6,128.3,155.1z M132.5,146.2
					c-1.6-0.5-3.3,5.3-3.3,5.3C131.8,149.8,134.1,146.7,132.5,146.2z"/>
				<path class="st2" d="M140.1,158.5c-14.5,9.9-23.5,2.2-22.9,0.8C119.5,154.2,130.3,155.7,140.1,158.5z M127,160.2
					c-2.5-2.4-6.3-1.3-6.3-1.3C121.4,160.2,125.1,161,127,160.2z"/>
				<path class="st2" d="M38.1,110.9c0.5,5.4-1.8,7.1-1.8,7.1s-2.7-1.4-3.8-2.3c-1.1-0.9-1.9-7.2-1.2-8.3c0.7-1.2,3-4.5,3-4.5
					S37.6,105.5,38.1,110.9z M32.7,108.8c0,6,2,6.9,2.4,6.6c0.4-0.2,0.2-3.5,0.2-5c-0.1-1.5-0.4-4.2-0.8-4.4
					C34.4,106,32.7,108.1,32.7,108.8z"/>
				<path class="st2" d="M43.6,107.2c0,0,4.3,1.4,4.8,10.4c0.1,1.7-0.3,4.2-2.1,5.4c-1.7,0-3.5-0.9-4-2.6c-0.5-1.8-2.1-5.4-0.9-9.1
					C42,110.1,43.6,107.9,43.6,107.2z M44.9,120.9c0.4-0.1,0.1-0.7,0.2-3.1c0.1-2.4-0.7-7.2-0.7-7.2
					C40.1,113.5,44.5,120.9,44.9,120.9z"/>
				<path class="st2" d="M37.2,126.8c0,0,8.6-1.7,12.9,7.2c0.3,2.4,1.2,2.1,0.2,2.8c-1,0.7-4.2,2.1-6.9-0.3c-2.7-2.5-5-3.6-5.5-6.3
					C37.7,129.1,37.2,128,37.2,126.8z M47.6,135.9c-2.4-2.2-7.9-7-7.9-7C38.9,133.9,46.5,136.3,47.6,135.9z"/>
				<path class="st2" d="M52.1,133.9c0,0,1.2-5,3.2-6.7c1.4-1.5,2.4-1.5,2.4-1.5s2.5,4,2.1,8.2c-0.3,4.2-1.4,8.1-3.5,8.7
					c-2.3-0.4-3.9-4.3-3.9-4.3L52.1,133.9z M55.3,140.4c0,0,1-3.3,1.3-6.1c0.2-2.8,0.2-5.3,0.2-5.3
					C51.6,131.9,55.3,140.4,55.3,140.4z"/>
				<path class="st2" d="M79.2,153.5c0.1,1.9-1.2,2.9-2.1,2.8c-1,0-6.3-2.9-7-3.2c-0.7-0.4-4.5-5.7-5-6.2l-0.5-6.4
					C75.3,142.5,79.1,151.6,79.2,153.5z M76.4,154.1c-2.8-4.7-9.4-10.2-9.4-10.2C66,148.9,75.2,154.5,76.4,154.1z"/>
				<path class="st2" d="M48.3,145.3c0,0,12.3-5,19.5,6.1c-1.6,1-4,3.2-5.1,3c-1.1-0.1-8.7-2.8-9.9-3.5
					C51.6,150.2,48.5,146.4,48.3,145.3z M61,152.7c2.1,0.7,2.7-0.9,3-1.5c-1.1,0-11.8-4.9-11.8-4.9C51.1,149.7,58.8,152,61,152.7z"
					/>
				<path class="st2" d="M67.7,163.9c0,0,3.5-9.5,20.1-6c0.7,0.9,1,1.4,0.5,2.2c-0.5,0.8-1.4,4.2-2.2,4.5c-0.8,0.3-4.2,1.1-6.3,1.6
					C77.6,166.7,72.1,167.7,67.7,163.9z M81.5,164.5c3.8-0.4,4.7-3.8,4.7-3.8s-4.3,0.4-6.5,0.8c-2.2,0.3-7.7,1.5-7.7,1.5
					C73.5,166.6,77.7,164.9,81.5,164.5z"/>
			</g>
			<path class="st2" d="M101.7,167.9H101c-0.6,0-1-0.4-1-1c0-2.9-4.6-6.4-8.1-7c-17.7-1.6-24.1-6.1-30.3-10.3
				c-0.6-0.4-1.2-0.8-1.8-1.2c-7-4.7-14.1-19.3-15.7-24.3c-1.1-3.3-6.6-5.6-8.7-6.2c-0.5-0.2-0.8-0.7-0.7-1.2
				c0.2-0.5,0.7-0.8,1.2-0.7c0.3,0.1,8.4,2.5,10,7.5c1.5,4.7,8.3,18.9,14.9,23.3c0.6,0.4,1.2,0.8,1.8,1.2c6.3,4.3,12.2,8.4,29.4,10
				c0,0,0,0,0.1,0c3.2,0.5,7.5,3.2,9.2,6.5c1.6-3.3,6-6,9.2-6.5c0,0,0,0,0.1,0c17.2-1.6,23.1-5.7,29.4-10c0.6-0.4,1.2-0.8,1.8-1.2
				c6.5-4.4,13.4-18.6,14.9-23.3c1.6-4.9,9.7-7.4,10-7.5c0.5-0.2,1.1,0.1,1.2,0.7c0.2,0.5-0.1,1.1-0.7,1.2l0,0
				c-2.1,0.6-7.6,2.9-8.7,6.2c-1.6,5-8.6,19.6-15.7,24.3c-0.6,0.4-1.2,0.8-1.8,1.2c-6.2,4.3-12.6,8.7-30.3,10.3
				c-3.5,0.6-8.1,4.2-8.1,7C102.7,167.4,102.3,167.9,101.7,167.9z"/>
		</g>
		<g>
			<g>
				<path class="st4" d="M37.3,71.4c-0.7,0.4-1.4,0.8-2.1,1.2c-1.7,4-3,8.1-3.9,12.3c0.6-0.5,1.2-1,1.8-1.5c0.6-2.6,1.4-5.1,2.4-7.6
					l0.2,0.1c-0.3,2.6-0.1,5.3,0.6,8c0.8-0.4,1.6-0.8,2.4-1.2c0.9-2.6,2.8-4.1,5.3-4.3c0.6-0.2,1.1-0.3,1.7-0.5l-9.5-3.9
					C36.5,73.1,36.9,72.2,37.3,71.4z M41.2,77.9c-1.3,0.5-2.4,1.4-3.4,2.6c-0.2-1.5-0.3-2.8-0.2-4L41.2,77.9z"/>
				<path class="st4" d="M35.1,72.8c-0.1,0.3-0.4,0.9-0.6,1.8c0.6-0.4,1.3-0.9,1.9-1.3l0.2-0.4c0.2-0.4,0.4-0.8,0.8-1
					c0.4-0.3,0.7-0.4,1-0.3c0.1,0,0.2,0,0.5,0.1l6.4,3c0.7-0.3,1.3-0.5,2-0.8l-9.2-4.6c0.4-0.8,0.8-1.5,1.2-2.3
					c-0.7,0.3-1.4,0.7-2.1,1l-0.4,0.8c-0.1,0.1-0.2,0.1-0.3,0.1c-0.3,0-0.7,0-1.1-0.2c-0.4,0.2-0.7,0.5-1.1,0.8
					c0.9,0.4,1.7,0.7,2.3,0.9l0.3,0.1C36.3,70.9,35.6,71.6,35.1,72.8z"/>
				<path class="st4" d="M43.7,63c-0.5-0.4-1.2-0.4-1.9-0.2c-0.7,0.3-1.4,0.8-1.8,1.5c-0.4,0.7-0.6,1.5-0.4,2.2
					c0.1,0.8,0.5,1.3,1,1.6c0.6,0.3,1.2,0.3,1.9,0c0.7-0.3,1.3-0.8,1.7-1.5c0.2-0.4,0.4-0.7,0.4-0.9c0.1-0.3,0.1-0.7,0-1.2
					C44.5,63.8,44.2,63.3,43.7,63z M52.6,66.6l-1.2-0.8c-2.7,0.4-4.5,0.9-5.2,1.1c-1.3,0.5-2.4,1-3.5,1.6l2.4,1.3
					c2.4-1.5,4.2-2.3,5.2-2.6C51.1,67,51.9,66.8,52.6,66.6z M42.3,64.3c0.2,0.1,0.3,0.3,0.4,0.4c0.1,0.2,0.1,0.5,0.1,1
					c0,0.5-0.1,0.8-0.2,1c-0.1,0.2-0.3,0.3-0.6,0.1c-0.4-0.2-0.6-0.5-0.6-0.9c0-0.7,0.1-1.3,0.3-1.5C41.8,64.1,42,64.1,42.3,64.3z"
					/>
				<path class="st4" d="M51.8,50.6c-0.8,0.1-1.6,0.3-2.4,0.4c-3.3,3.5-6.3,7.3-8.8,11.3c0.8-0.3,1.5-0.6,2.3-0.9
					c1.8-2.7,3.8-5.2,5.9-7.6l1.1,0.9c0,0-0.1,0-0.1,0c-0.2,0-0.4,0-0.6,0c-0.4,0.1-0.8,0.4-1.2,0.8c-0.2,0.2-0.3,0.5-0.4,0.9
					c-0.1,0.3,0,0.6,0,0.9l-0.2,0c-0.9,0.2-1.6,0.7-2.2,1.5c-0.5,0.8-0.7,1.6-0.5,2.4c0.2,0.7,0.6,1.3,1.2,1.7
					c0.7,0.5,1.5,0.6,2.3,0.3c0.8-0.2,1.5-0.8,2.1-1.6c0.6-0.8,0.7-1.5,0.4-2.2c-0.1-0.2-0.4-0.4-1-0.6c-0.7-0.2-1.3,0-1.7,0.6
					c-0.3,0.4-0.4,0.7-0.4,1.1c0,0.4,0.2,0.7,0.4,0.9c0.1,0.1,0.2,0.1,0.3,0.2c-0.4,0.3-0.8,0.3-1.1,0c-0.3-0.2-0.5-0.6-0.5-1.1
					c0-0.5,0.1-0.9,0.5-1.3c0.4-0.5,0.8-0.8,1.3-0.9c0.2,0,0.5-0.1,0.9,0c0.2,0,0.4,0.2,0.6,0.5c0.2-0.4,0.4-0.9,0.5-1.3
					c-0.6-0.3-0.9-0.6-0.9-0.8c0-0.2,0-0.4,0.2-0.6c0.2-0.2,0.5-0.4,0.8-0.4c0.4-0.1,0.6,0,0.8,0.1l4,3.5c0.7-0.1,1.4-0.2,2.1-0.3
					L50,52.5C50.6,51.9,51.2,51.3,51.8,50.6z"/>
				<path class="st4" d="M49.5,51c-0.3,0.3-0.7,0.7-1.2,1.4c0.7-0.2,1.5-0.3,2.2-0.5l0.3-0.3c0.3-0.3,0.7-0.5,1.1-0.7
					s0.8-0.1,1.1,0.1c0.1,0,0.2,0.1,0.4,0.3l4.9,5.1c0.7,0,1.5,0,2.2,0l-6.9-7.5c0.6-0.6,1.3-1.2,1.9-1.7c-0.8,0-1.6,0.1-2.4,0.2
					l-0.6,0.6c-0.1,0-0.3,0-0.4,0c-0.3-0.1-0.6-0.3-1-0.5c-0.4,0.1-0.9,0.2-1.3,0.3c0.7,0.7,1.3,1.3,1.8,1.7l0.2,0.2
					C51.2,49.6,50.4,50.1,49.5,51z"/>
				<path class="st4" d="M61.3,42.6c-0.7,0-1.5,0-2.2,0c-2.4,1.7-4.7,3.6-6.9,5.7c0.8-0.1,1.6-0.2,2.4-0.2c0.8-0.7,1.7-1.4,2.5-2.1
					c-0.3,2,0.2,3.6,1.2,4.7c0.8,0.9,1.7,1.5,2.8,1.8c1.3,0.4,2.4,0.2,3.5-0.6c0.5-0.4,0.8-0.8,1-1.3c0.2-0.5,0.1-1-0.2-1.4
					c-0.3-0.5-0.8-0.6-1.4-0.5c-0.3,0-0.6,0.1-0.8,0.3c-0.2,0.1-0.4,0.4-0.5,0.6c-0.3,0.6-0.3,1.1,0,1.5c0.2,0.3,0.5,0.4,1,0.4
					l0.2,0l0.1,0c0,0-0.1,0.1-0.3,0.3c0.2-0.3,0.3-0.4,0.2-0.5c0,0,0,0-0.1,0c-0.1,0.1-0.2,0.2-0.4,0.2c-1.3,0.2-2.3-0.1-3-0.9
					c-0.2-0.3-0.5-0.7-0.8-1.3c-0.5-1-0.7-2-0.4-3.1C59.4,44.9,60.2,43.8,61.3,42.6z"/>
				<path class="st4" d="M63.2,41.5c2.8-1.8,5.7-3.4,8.7-4.8c-0.8-0.2-1.6-0.3-2.4-0.4c-4,2-7.8,4.3-11.3,7c0.8,0,1.6,0,2.4,0
					l0.9-0.6l3,4.3c0.8,0.1,1.7,0.2,2.5,0.3c-0.3-2,0.3-3.8,1.7-5.3c0.2,0.7,0.4,1.3,0.7,1.9c0.4,0.8,1.3,1.8,2.6,3.2
					c0.5,0,1-0.1,1.4-0.1l-0.2-0.3C72.5,45.6,72,45,72,45c-0.9-1.2-1.3-3.1-1-5.5c-0.9-0.1-1.9-0.1-2.9-0.1c-1.3,1.3-2,2.3-2.4,3.1
					c-0.2,0.5-0.4,1-0.6,1.4l-0.2,0.4L63.2,41.5z"/>
				<path class="st4" d="M80,36.7c-0.1-0.4-0.4-0.7-0.9-0.9c-0.2-0.1-0.7-0.2-1.4-0.4c0.1-0.3,0.3-0.5,0.8-0.7
					c0.3-0.1,0.8,0,1.5,0.3c0.7,0.3,1,0.7,1.1,0.9l1.7,5.7c0.7,0.3,1.4,0.6,2,0.9l-2.7-9.5c0.8-0.2,1.6-0.4,2.5-0.6
					c-0.7-0.3-1.4-0.6-2.2-0.9c-0.5,0.1-0.9,0.1-1,0l0-0.2c-0.1-0.2-0.2-0.4-0.4-0.5c-0.4-0.1-0.9-0.3-1.6-0.5l0.8,2.2l0.8,1.8
					l-0.2-0.1c-1.6-1-2.7-1.3-3.3-1.1c-0.1,0-0.3,0.1-0.6,0.3c-1,0.6-1.6,1.3-1.8,2.1c-0.6-0.2-1.1-0.4-1.5-0.5
					c-0.6,0-1.2,0.1-1.8,0.3c-1,0.5-2.1,1-3.1,1.5c0.8,0.1,1.6,0.3,2.3,0.4c1.4-0.7,1.8-0.9,1.2-0.6c0.4-0.2,0.8-0.3,1.2-0.2
					c0.3,0.1,0.5,0.2,0.6,0.3l-0.5,0.7c-0.6,0.8-0.7,1.6-0.4,2.1c0.1,0.1,0.1,0.3,0.2,0.3c0.6,0.6,1.2,0.7,2,0.4
					c0.7-0.3,1.2-0.8,1.5-1.5c0.6,0.3,1.3,0.3,1.9,0.1c0.3-0.1,0.6-0.3,0.9-0.5c0.3-0.2,0.4-0.5,0.5-0.7l-0.1,0.1
					C80.1,37.3,80.1,37,80,36.7z"/>
				<g>
					<path class="st4" d="M106.3,30.6c-0.6-0.5-1.2-1-1.9-1.5c-5.5-0.3-11.1,0.1-16.5,1.1c0.7,0.3,1.4,0.7,2.1,1.1
						c3.9-0.6,7.8-0.9,11.8-0.9l-0.1,5.1l-0.8-1.1c0.1-0.8-0.3-1.7-1.1-2.5c-1-1-2.2-1.4-3.7-1.3c-0.4,0-0.7,0.1-1,0.2
						c-0.8,0.3-1.1,0.8-1.1,1.4c0,0.4,0.3,0.7,0.8,1c0.5,0.3,1,0.4,1.5,0.3c0.6,0,1-0.3,1.3-0.7c0.2-0.2,0.3-0.3,0.3-0.4
						c0.1,0,0.1,0,0.2,0c0.2,0.1,0.5,0.3,0.6,0.6c0.1,0.3,0.2,0.5,0.2,0.8c0,0.9-0.5,1.3-1.7,1.4c-0.7,0.1-1.4,0-2-0.2
						c-0.3-0.1-0.9-0.4-1.7-0.9c-0.4-0.3-0.9-0.7-1.3-1.4l-1-1.5c-0.5-0.1-1-0.2-1.5-0.2c0.2,0.6,0.6,1.3,1.2,2.2
						c0.6,1,1.1,1.6,1.5,2c0.7,0.6,1.2,1,1.5,1.2c1.1,0.7,2.1,1,3.3,0.9c1.1-0.1,2.1-0.5,2.8-1.4c0.5,0.4,0.8,0.7,0.9,0.9
						c0.6,1,1,1.8,1.2,2.4c0.3,0.4,0.6,0.7,0.9,1.1l0.4-10.1C104.5,30.5,105.4,30.6,106.3,30.6z"/>
					<path class="st4" d="M104.3,29.1c-0.4,0-1,0-1.9,0c0.6,0.4,1.2,0.9,1.8,1.4l0.4,0c0.5,0,0.9,0.2,1.2,0.4
						c0.4,0.2,0.6,0.5,0.7,0.9c0,0.1,0,0.2,0.1,0.5l-0.6,7.1c0.5,0.5,1,1.1,1.4,1.6l1.1-10.2c0.9,0.1,1.7,0.2,2.6,0.3
						c-0.5-0.6-1.1-1.1-1.7-1.6l-0.9-0.1c-0.1-0.1-0.2-0.2-0.3-0.3c-0.1-0.3-0.2-0.6-0.2-1.1c-0.4-0.3-0.7-0.5-1.1-0.8
						c-0.1,1-0.1,1.9-0.1,2.5l0,0.3C106.4,29.5,105.5,29.2,104.3,29.1z"/>
					<path class="st4" d="M120.9,39.1c0.2-0.6,0.1-1.3-0.3-2.1c0.7-0.4,1.2-1.1,1.5-2c0.2-0.6,0-1.3-0.5-1.9c-0.5-0.6-1.2-1-2.2-1.2
						c-0.9-0.3-1.9-0.3-3-0.2c-1.9,0.3-2.9,1-3.1,2c-0.2,1.1,0.4,1.7,1.6,2c1,0.2,1.6,0,1.7-0.7c0.1-0.5,0-0.9-0.4-1.3
						c0.2-0.1,0.3-0.2,0.6-0.2c1-0.3,2-0.3,2.8-0.1c0.8,0.2,1.1,0.6,0.9,1.2c-0.1,0.4-0.4,0.6-0.8,0.7c-0.3-0.2-0.6-0.4-0.9-0.5
						c-0.5-0.1-0.9-0.1-1.3,0.1c-0.4,0.2-0.6,0.5-0.7,0.9c-0.1,0.4,0,0.7,0.2,1.1c0.3,0.3,0.6,0.5,1.1,0.7c0.4,0.1,0.8,0.1,1.1,0
						c0.2,0.2,0.3,0.5,0.2,0.7c-0.1,0.4-0.5,0.7-1,0.8c-0.5,0.1-1,0.1-1.6-0.1c-0.8-0.2-1.5-0.7-2.3-1.5c-0.6-0.6-0.9-1.1-1.2-1.5
						c-0.6-1.7-1.2-3.2-1.8-4.5c-0.5-0.3-1-0.6-1.5-0.8c0.8,3.7,1.7,6.2,2.7,7.6c0.6,0.7,1.1,1.3,1.5,1.6c0.6,0.5,1.2,0.8,2,1
						c0.6,0.2,1,0.2,1.3,0.3c0.4,0,0.9-0.1,1.4-0.3C120.1,40.6,120.7,40,120.9,39.1z"/>
					<path class="st4" d="M134.6,39c-0.3-0.7-0.7-1.5-1.1-2.2c-3.7-1.9-7.6-3.5-11.6-4.7c0.5,0.6,0.9,1.3,1.4,1.9
						c0.3,0.6,0.9,1.1,1.8,1.6c1,0.5,1.6,1,1.8,1.2c-1.4,0.2-2.8,0.5-4.2,1c0.4,0.8,0.8,1.6,1.1,2.4c0.9,0.4,1.4,0.7,1.8,1
						c0.4,0.3,0.8,0.8,1.1,1.4c0.3,0.6,0.5,1.1,0.6,1.6c0.1,0.3,0.1,0.8,0.2,1.5c0.2,0.4,0.3,0.8,0.5,1.2l4.5-9
						C133.2,38.3,133.9,38.6,134.6,39z M125.2,44.1c0.3-0.1,0.6-0.3,0.7-0.6c0.1-0.3,0.1-0.6-0.1-1c-0.2-0.4-0.5-0.6-0.9-0.8
						c-0.4-0.1-0.7-0.2-1.1,0c-0.3,0.1-0.6,0.3-0.7,0.7c-0.1,0.3-0.1,0.6,0.1,1c0.2,0.3,0.5,0.6,0.8,0.7
						C124.5,44.2,124.9,44.2,125.2,44.1z M128.1,42.7c-0.4-1.2-1.2-2.4-2.3-3.3c0.7-0.3,1.3-0.4,1.6-0.5c0.7-0.1,1.3-0.3,1.8-0.4
						c-0.6-1.4-1.1-2.3-1.4-2.8c1,0.4,2,0.9,3,1.3L128.1,42.7z"/>
					<path class="st4" d="M133.7,37c-0.3-0.2-0.9-0.4-1.7-0.7c0.4,0.7,0.8,1.3,1.1,2l0.4,0.2c0.4,0.2,0.7,0.5,0.9,0.9
						c0.2,0.4,0.3,0.7,0.2,1.1c0,0.1-0.1,0.2-0.2,0.5L131,47c0.2,0.7,0.4,1.4,0.6,2.1l5.3-8.8c0.7,0.4,1.5,0.9,2.2,1.4
						c-0.3-0.7-0.6-1.5-0.8-2.2l-0.7-0.4c-0.1-0.1-0.1-0.3-0.1-0.4c0-0.3,0.1-0.7,0.2-1.1c-0.2-0.4-0.4-0.8-0.7-1.1
						c-0.5,0.9-0.9,1.6-1.1,2.2l-0.1,0.3C135.5,38.3,134.9,37.6,133.7,37z"/>
					<path class="st4" d="M139.3,43.4c0.6,0.6,0.9,1.1,1.1,1.5c0.2,0.5,0.2,1,0,1.5c-0.1-0.1-0.2-0.2-0.4-0.4
						c-0.6-0.5-1.3-0.7-1.8-0.7c-0.6,0-1.1,0.2-1.5,0.7c-0.1,0.1-0.1,0.2-0.2,0.3c-0.1,0.3-0.1,0.5-0.2,0.5c0,0.1,0,0.3,0.1,0.6
						c0.1,0.4,0.5,0.9,1.1,1.3c0.6,0.4,1.3,0.6,2.2,0.6c0.2,0.3,0.4,0.9,0.6,1.6c0.1,0.4,0.1,0.8-0.1,1.3c0,0.2-0.2,0.6-0.4,1.2
						c0.1,0.4,0.1,0.9,0.2,1.3l6.5-7.6c0.6,0.5,1.3,1.1,1.9,1.7c-0.2-0.8-0.3-1.6-0.5-2.4c-3.3-2.9-6.9-5.4-10.6-7.7
						c0.3,0.7,0.6,1.4,0.8,2l0,0.5c0.1,0.4,0.2,0.7,0.4,1C138.6,42.6,138.9,43,139.3,43.4z M141.6,50.4c-0.1-0.8-0.2-1.4-0.4-1.8
						c0.2-0.2,0.4-0.4,0.4-0.7c0.5-1.1,0.5-2.2,0.2-3.2c-0.1-0.3-0.3-0.7-0.5-1.4c1.3,0.9,2.5,1.8,3.7,2.8L141.6,50.4z"/>
					<path class="st4" d="M152.1,52.6c-0.1-0.8-0.2-1.6-0.3-2.4l-0.8-0.8l0.3-0.7c0.2-0.5,0.3-1,0.3-1.7c0-1.5-0.4-2.9-1.3-4.1
						c-0.9-1.2-1.7-2.1-2.4-2.6c-0.2-0.1-0.4-0.3-0.8-0.5c-1.5-0.9-2.7-1.3-3.7-1.4c-0.5,0-0.8,0.1-1.1,0.5c-0.3,0.4-0.2,1,0.2,1.7
						c0.3,0.6,0.8,1.1,1.4,1.7c0.8,0.6,1.4,1.1,1.7,1.4c0.9,0.8,1.2,1.3,1.1,1.5c-0.1,0.1-0.6,0.1-1.5-0.1c0.7,0.5,1.3,1.1,1.9,1.6
						c0.3-0.2,0.5-0.3,0.6-0.5c0.3-0.3,0.4-0.7,0.4-1.2c0-0.5-0.2-1.1-0.7-1.6c-0.3-0.4-0.8-0.8-1.5-1.4c-0.9-0.7-1.5-1.2-2-1.5
						c-0.5-0.4-0.7-0.6-0.6-0.8c0.1-0.2,0.6,0,1.5,0.4c0.6,0.3,1.2,0.7,1.6,1c1.3,1,2.3,2.2,3,3.4c0.3,0.5,0.5,1.1,0.5,1.7
						c0.1,0.9,0,1.4-0.1,1.7l-0.2,0.4c-0.9-0.8-1.8-1.6-2.7-2.4c0.2,0.8,0.4,1.6,0.6,2.4c0.3,0.3,0.7,0.6,1,0.9l-5.8,6.3
						c0.1,0.7,0.2,1.4,0.2,2.2l7-7.1C150.8,51.2,151.5,51.9,152.1,52.6z"/>
				</g>
				<g>
					<path class="st4" d="M163.5,68.7c0.1-0.8,0.2-1.6,0.3-2.4c-2.3-4.2-5-8.2-8.1-11.9c0.1,0.8,0.1,1.6,0.2,2.4
						c2,2.5,3.8,5.2,5.5,7.9l-1.2,0.7c0,0,0-0.1,0-0.1c0.1-0.2,0.1-0.4,0.1-0.6c0-0.4-0.1-0.9-0.4-1.4c-0.1-0.2-0.4-0.5-0.8-0.6
						c-0.3-0.1-0.6-0.2-0.9-0.3l0-0.2c0.1-0.9-0.2-1.8-0.8-2.6c-0.6-0.8-1.3-1.2-2.1-1.2c-0.7-0.1-1.4,0.1-2,0.6
						c-0.7,0.5-1,1.2-1,2.1c0,0.8,0.3,1.7,0.9,2.5c0.6,0.8,1.2,1.2,2,1.1c0.3,0,0.5-0.3,0.8-0.8c0.4-0.6,0.3-1.2-0.1-1.8
						c-0.3-0.4-0.6-0.6-1-0.7c-0.4-0.1-0.7-0.1-1,0.1c-0.1,0.1-0.2,0.2-0.3,0.2c-0.1-0.5,0-0.8,0.3-1.1c0.3-0.2,0.7-0.3,1.2-0.2
						c0.5,0.1,0.8,0.4,1.1,0.8c0.4,0.5,0.5,1,0.5,1.5c0,0.2-0.1,0.5-0.2,0.9c-0.1,0.2-0.3,0.4-0.6,0.4c0.4,0.3,0.7,0.6,1.1,0.9
						c0.5-0.4,0.8-0.6,1-0.6c0.2,0,0.4,0.1,0.5,0.3c0.2,0.2,0.2,0.5,0.2,0.9c0,0.4-0.2,0.6-0.3,0.7l-4.6,2.7
						c-0.1,0.7-0.2,1.4-0.4,2.1l8.7-4.8C162.7,67.2,163.1,68,163.5,68.7z"/>
					<path class="st4" d="M165.6,73.4c0.2-0.8,0.4-1.5,0.5-2.3l-0.5-1.1l0.5-0.6c0.3-0.4,0.6-0.9,0.9-1.5c0.6-1.4,0.6-2.8,0.2-4.4
						c-0.4-1.4-0.9-2.5-1.4-3.3c-0.1-0.2-0.3-0.4-0.6-0.8c-1.1-1.3-2.1-2.2-3-2.6c-0.4-0.2-0.8-0.2-1.2,0.1
						c-0.4,0.3-0.6,0.9-0.4,1.7c0.1,0.6,0.4,1.3,0.7,2.1c0.5,0.8,0.9,1.5,1.1,1.9c0.6,1,0.7,1.6,0.5,1.7c-0.1,0.1-0.6-0.1-1.4-0.6
						c0.4,0.7,0.9,1.5,1.3,2.2c0.3-0.1,0.6-0.1,0.8-0.2c0.4-0.2,0.6-0.5,0.8-1c0.2-0.5,0.2-1.1,0-1.8c-0.1-0.4-0.4-1.1-0.9-1.9
						c-0.6-1-1-1.7-1.3-2.1c-0.3-0.5-0.5-0.8-0.3-0.9c0.2-0.1,0.6,0.2,1.3,0.9c0.5,0.5,0.8,1,1.1,1.5c0.9,1.4,1.4,2.8,1.7,4.2
						c0.1,0.6,0.1,1.2-0.1,1.7c-0.2,0.8-0.5,1.4-0.7,1.6l-0.3,0.3c-0.5-1.1-1.1-2.1-1.7-3.2c-0.1,0.8-0.2,1.7-0.2,2.5
						c0.2,0.4,0.4,0.8,0.6,1.2l-7.6,3.9c-0.2,0.7-0.4,1.4-0.6,2.1l9-4.2C164.8,71.6,165.2,72.5,165.6,73.4z"/>
					<path class="st4" d="M168,75.9c-0.3-0.8-0.7-1.4-1.1-1.9c-0.4-0.4-0.9-0.7-1.4-0.8c-0.6-0.2-1.1-0.1-1.4,0
						c-0.6,0.2-0.8,0.8-0.9,1.5c0,0.2,0,0.4,0.1,0.6c0.1,0.3,0.4,0.6,0.8,1.1c0.5,0.5,0.7,0.8,0.7,0.9c0.1,0.2,0.1,0.4-0.1,0.4
						c-0.1,0-0.6-0.2-1.4-0.6c-0.9-0.5-1.5-0.9-1.7-1c-0.3,0.8-0.6,1.5-0.9,2.2c0.5,0.2,0.8,0.4,1,0.5c0.5,0.3,1.1,0.5,1.6,0.6
						c0.7,0.2,1.2,0.2,1.5,0c1-0.5,1.3-1.6,0.7-3.1l-0.3-0.7c0.5,0.2,1,0.7,1.4,1.6c0.2,0.5,0.3,1.1,0.2,1.7c-0.1,0.5-0.4,1-0.8,1.6
						c-0.4,0.6-0.8,0.9-1.2,1l-5,1.4c-0.3,0.7-0.7,1.5-1.1,2.2l9.8-2.6c0.2,0.9,0.4,1.7,0.6,2.6c0.3-0.7,0.6-1.5,0.9-2.2
						c-0.2-0.3-0.2-0.5-0.3-0.7c0-0.4,0.1-0.6,0.5-0.7c0.2,0,0.3,0,0.5,0c0.2-0.6,0.4-1.1,0.6-1.7c-1.4,0.4-2.4,0.7-3,1l-1,0.4
						C168.6,79.9,168.8,78.1,168,75.9z"/>
				</g>
			</g>
		</g>
	</g>
</g>
</svg>
