<?xml version="1.0" encoding="utf-8"?>
<!-- Generator: Adobe Illustrator 24.0.1, SVG Export Plug-In . SVG Version: 6.00 Build 0)  -->
<svg version="1.1" id="Layer_1" xmlns="http://www.w3.org/2000/svg" xmlns:xlink="http://www.w3.org/1999/xlink" x="0px" y="0px"
	 viewBox="0 0 228 227" style="enable-background:new 0 0 228 227;" xml:space="preserve">
<style type="text/css">
	.st0{fill:#EC1C24;}
	.st1{fill:url(#SVGID_1_);}
	.st2{fill:url(#SVGID_2_);}
	.st3{fill:url(#SVGID_3_);}
	.st4{fill:url(#SVGID_4_);}
	.st5{fill:url(#SVGID_5_);}
	.st6{fill:url(#SVGID_6_);}
	.st7{fill:url(#SVGID_7_);}
	.st8{fill:url(#SVGID_8_);}
	.st9{fill:url(#SVGID_9_);}
	.st10{fill:url(#SVGID_10_);}
	.st11{fill:url(#SVGID_11_);}
	.st12{fill:url(#SVGID_12_);}
	.st13{fill:url(#SVGID_13_);}
	.st14{fill:url(#SVGID_14_);}
	.st15{fill:url(#SVGID_15_);}
	.st16{fill:url(#SVGID_16_);}
	.st17{fill:url(#SVGID_17_);}
	.st18{fill:url(#SVGID_18_);}
	.st19{fill:url(#SVGID_19_);}
	.st20{fill:#231F20;}
	.st21{fill:#90278E;}
	.st22{fill:#8BC53F;}
	.st23{fill:none;}
	.st24{fill:#652D90;}
	.st25{fill:#FFFFFF;}
</style>
<g>
	<linearGradient id="SVGID_1_" gradientUnits="userSpaceOnUse" x1="25.6892" y1="114.1782" x2="14.4742" y2="102.9632">
		<stop  offset="0" style="stop-color:#25A9E0"/>
		<stop  offset="0.4673" style="stop-color:#4768B6"/>
		<stop  offset="0.8202" style="stop-color:#5D3D9B"/>
		<stop  offset="1" style="stop-color:#652D90"/>
	</linearGradient>
	<path class="st1" d="M17.7,120.8c-0.6,0.6-0.7,1.7,0,2.3c0.3,0.3,0.7,0.4,1,0.4c0.8,0,1.1-0.5,2-1.3l13.9-13.9
		c0.3-0.3,0.5-0.8,0.5-1.3c-0.1-0.8-0.8-1.4-1.5-1.4H11.8c-0.8,0-1.6,0.6-1.6,1.5c0,0.9,0.7,1.6,1.5,1.6h16c0.8,0,1.1,0.9,0.6,1.5
		L17.7,120.8z"/>
	<linearGradient id="SVGID_2_" gradientUnits="userSpaceOnUse" x1="58.4991" y1="139.3556" x2="40.9672" y2="121.8237">
		<stop  offset="0" style="stop-color:#EC1C24"/>
		<stop  offset="0.2185" style="stop-color:#EC1F25"/>
		<stop  offset="0.3822" style="stop-color:#ED2926"/>
		<stop  offset="0.5282" style="stop-color:#EF3929"/>
		<stop  offset="0.6637" style="stop-color:#F1502E"/>
		<stop  offset="0.7921" style="stop-color:#F46D33"/>
		<stop  offset="0.9133" style="stop-color:#F7913A"/>
		<stop  offset="1" style="stop-color:#FAAF40"/>
	</linearGradient>
	<path class="st2" d="M62.7,98.7c-0.9-0.9-2.3-0.9-3.1,0l-13.7,13.7c0,0,0,0,0,0l-27.9,27.9c-0.9,0.9-0.9,2.4,0,3.2
		c0.4,0.4,1,0.6,1.5,0.6c0.6,0,1.1-0.2,1.6-0.6l24.2-24.2v22.6c0,1.2,0.8,2.2,2,2.3c1.3,0.1,2.4-0.9,2.4-2.2v-25.2
		c0-1.3,0.5-2.5,1.4-3.3l11.7-11.7C63.5,101,63.5,99.6,62.7,98.7z"/>
	<linearGradient id="SVGID_3_" gradientUnits="userSpaceOnUse" x1="35.7127" y1="108.2833" x2="9.7618" y2="82.3324">
		<stop  offset="0" style="stop-color:#25A9E0"/>
		<stop  offset="0.4673" style="stop-color:#4768B6"/>
		<stop  offset="0.8202" style="stop-color:#5D3D9B"/>
		<stop  offset="1" style="stop-color:#652D90"/>
	</linearGradient>
	<path class="st3" d="M19.9,94.7c0.3,0.3,0.7,0.5,1.1,0.5c0.4,0,0.8-0.2,1.1-0.5c0.6-0.6,0.6-1.6,0-2.2l-9.3-9.3
		c-0.6-0.6-1.6-0.6-2.2,0c-0.6,0.6-0.6,1.6,0,2.2L19.9,94.7z"/>
	<linearGradient id="SVGID_4_" gradientUnits="userSpaceOnUse" x1="48.5254" y1="125.7479" x2="66.0033" y2="143.2258">
		<stop  offset="0" style="stop-color:#FAAF40"/>
		<stop  offset="2.577680e-02" style="stop-color:#F9A23E"/>
		<stop  offset="0.1087" style="stop-color:#F57F37"/>
		<stop  offset="0.1995" style="stop-color:#F26031"/>
		<stop  offset="0.2984" style="stop-color:#F0472C"/>
		<stop  offset="0.4086" style="stop-color:#EE3429"/>
		<stop  offset="0.5363" style="stop-color:#ED2626"/>
		<stop  offset="0.6973" style="stop-color:#EC1E24"/>
		<stop  offset="1" style="stop-color:#EC1C24"/>
	</linearGradient>
	<path class="st4" d="M54.5,119.2c-0.9,0-1.5,0.7-1.5,1.5v22c0,0.9,0.7,1.5,1.5,1.5c0.9,0,1.5-0.7,1.5-1.5v-22
		C56,119.8,55.3,119.2,54.5,119.2z"/>
	<linearGradient id="SVGID_5_" gradientUnits="userSpaceOnUse" x1="34.2881" y1="115.548" x2="9.4625" y2="90.7224">
		<stop  offset="0" style="stop-color:#37B34A"/>
		<stop  offset="7.702512e-03" style="stop-color:#36B350"/>
		<stop  offset="7.272884e-02" style="stop-color:#31B07B"/>
		<stop  offset="0.1385" style="stop-color:#2DADA0"/>
		<stop  offset="0.2042" style="stop-color:#29ABBC"/>
		<stop  offset="0.2699" style="stop-color:#27AAD0"/>
		<stop  offset="0.3354" style="stop-color:#25A9DC"/>
		<stop  offset="0.401" style="stop-color:#25A9E0"/>
		<stop  offset="0.4855" style="stop-color:#28A4DD"/>
		<stop  offset="0.5899" style="stop-color:#3095D3"/>
		<stop  offset="0.7046" style="stop-color:#3C7BC3"/>
		<stop  offset="0.8269" style="stop-color:#4F58AC"/>
		<stop  offset="0.9513" style="stop-color:#652D90"/>
	</linearGradient>
	<path class="st5" d="M51.1,102.6c1.7-1.7,0.5-4.6-1.9-4.6H39.1c-0.6,0-1.2-0.2-1.6-0.7l-14-14c-0.9-0.9-2.4-0.9-3.3,0.1
		c-0.7,0.9-0.6,2.2,0.2,3.1L31.9,98c0,0,0,0,0,0H19.5c-1.2,0-2.2,0.8-2.3,2c-0.1,1.3,0.9,2.4,2.2,2.4h21.7c1.4,0,2.1,1.7,1.1,2.7
		l-24.4,24.3c-0.9,0.9-0.9,2.3,0,3.1c0.4,0.4,1,0.6,1.6,0.6c0.6,0,1.1-0.2,1.6-0.6L51.1,102.6z"/>
	<g>
		<g>
			<path class="st20" d="M78.8,109.9l1.8-2.1c1.2,1,2.5,1.7,4.1,1.7c1.2,0,2-0.5,2-1.3v0c0-0.8-0.5-1.1-2.7-1.7
				c-2.7-0.7-4.5-1.5-4.5-4.2v0c0-2.5,2-4.1,4.8-4.1c2,0,3.7,0.6,5.1,1.7l-1.6,2.3c-1.2-0.8-2.4-1.3-3.5-1.3c-1.1,0-1.8,0.5-1.8,1.2
				v0c0,0.9,0.6,1.2,2.9,1.8c2.8,0.7,4.3,1.7,4.3,4.1v0c0,2.7-2.1,4.2-5,4.2C82.5,112.1,80.4,111.3,78.8,109.9z"/>
			<path class="st20" d="M95,101h-4.1v-2.8h11.3v2.8H98v10.9h-3V101z"/>
			<path class="st20" d="M107.4,98.1h2.8l5.8,13.7h-3.1l-1.2-3.1h-5.8l-1.2,3.1h-3.1L107.4,98.1z M110.5,106.2l-1.8-4.4l-1.8,4.4
				H110.5z"/>
			<path class="st20" d="M118.1,98.2h6.2c1.7,0,3.1,0.5,4,1.4c0.8,0.8,1.2,1.8,1.2,3.1v0c0,2.2-1.2,3.6-2.9,4.2l3.3,4.9h-3.5
				l-2.9-4.4h-2.4v4.4h-3V98.2z M124.1,104.9c1.5,0,2.3-0.8,2.3-1.9v0c0-1.3-0.9-1.9-2.4-1.9h-3v3.9H124.1z"/>
			<path class="st20" d="M135.3,101h-4.1v-2.8h11.3v2.8h-4.1v10.9h-3V101z"/>
			<path class="st20" d="M144.5,106v-7.8h3v7.7c0,2.2,1.1,3.4,2.9,3.4c1.8,0,2.9-1.1,2.9-3.3v-7.8h3v7.7c0,4.1-2.3,6.1-6,6.1
				C146.8,112.1,144.5,110,144.5,106z"/>
			<path class="st20" d="M159.4,98.2h5.6c3.2,0,5.2,1.9,5.2,4.7v0c0,3.2-2.5,4.8-5.5,4.8h-2.3v4.1h-3V98.2z M164.8,105.1
				c1.5,0,2.4-0.9,2.4-2.1v0c0-1.3-0.9-2.1-2.4-2.1h-2.3v4.2H164.8z"/>
		</g>
		<g>
			<path class="st20" d="M78.8,115.1h5.8c1.6,0,2.8,0.4,3.6,1.2c0.6,0.6,0.9,1.3,0.9,2.2v0c0,1.8-1.1,2.7-2.2,3.2
				c1.6,0.5,2.9,1.4,2.9,3.3v0c0,2.3-2,3.7-4.9,3.7h-6V115.1z M84.3,121.2c1.8,0,3.1-0.8,3.1-2.4v0c0-1.3-1.1-2.2-3-2.2h-4.1v4.7
				H84.3z M84.9,127.3c2.1,0,3.3-0.9,3.3-2.4v0c0-1.5-1.2-2.3-3.6-2.3h-4.3v4.8H84.9z"/>
			<path class="st20" d="M97.8,115h1.4l6.2,13.7h-1.7l-1.6-3.6h-7.4l-1.6,3.6h-1.6L97.8,115z M101.6,123.7l-3.1-6.9l-3.1,6.9H101.6z
				"/>
			<path class="st20" d="M108.2,115.1h1.4l8.6,10.9v-10.9h1.5v13.6h-1.2l-8.8-11.2v11.2h-1.5V115.1z"/>
			<path class="st20" d="M122.9,121.9L122.9,121.9c0-3.8,2.7-7.1,6.8-7.1c2.3,0,3.7,0.7,5.1,1.8l-1,1.2c-1.1-0.9-2.2-1.6-4.1-1.6
				c-3,0-5.2,2.5-5.2,5.6v0c0,3.2,2.1,5.7,5.4,5.7c1.6,0,3-0.6,3.9-1.4v-3.4h-4.1v-1.4h5.6v5.4c-1.3,1.1-3.2,2.1-5.5,2.1
				C125.6,129,122.9,125.8,122.9,121.9z"/>
			<path class="st20" d="M138.8,115.1h1.5v12.2h7.7v1.4h-9.2V115.1z"/>
			<path class="st20" d="M155.9,115h1.4l6.2,13.7h-1.7l-1.6-3.6h-7.4l-1.6,3.6h-1.6L155.9,115z M159.7,123.7l-3.1-6.9l-3.1,6.9
				H159.7z"/>
			<path class="st20" d="M166.2,115.1h4.7c4.3,0,7.2,2.9,7.2,6.8v0c0,3.8-3,6.8-7.2,6.8h-4.7V115.1z M170.9,127.3
				c3.4,0,5.6-2.3,5.6-5.3v0c0-3-2.2-5.4-5.6-5.4h-3.2v10.8H170.9z"/>
			<path class="st20" d="M181.4,115.1h9.8v1.4h-8.3v4.6h7.4v1.4h-7.4v4.8h8.4v1.4h-9.9V115.1z"/>
			<path class="st20" d="M193.5,126.7l1-1.1c1.4,1.3,2.8,1.9,4.7,1.9c1.8,0,3-1,3-2.3v0c0-1.3-0.7-2-3.5-2.6
				c-3.1-0.7-4.6-1.7-4.6-3.9v0c0-2.1,1.9-3.7,4.5-3.7c2,0,3.4,0.6,4.8,1.7l-0.9,1.2c-1.3-1-2.5-1.5-3.9-1.5c-1.8,0-2.9,1-2.9,2.2v0
				c0,1.3,0.7,2,3.7,2.6c3,0.7,4.4,1.8,4.4,3.9v0c0,2.3-1.9,3.9-4.6,3.9C196.9,128.9,195.2,128.2,193.5,126.7z"/>
			<path class="st20" d="M206.9,115.1h1.5v6h7.9v-6h1.5v13.6h-1.5v-6.1h-7.9v6.1h-1.5V115.1z"/>
		</g>
	</g>
</g>
</svg>
