<?xml version="1.0" encoding="utf-8"?>
<!-- Generator: Adobe Illustrator 24.0.1, SVG Export Plug-In . SVG Version: 6.00 Build 0)  -->
<svg version="1.1" id="Layer_1" xmlns="http://www.w3.org/2000/svg" xmlns:xlink="http://www.w3.org/1999/xlink" x="0px" y="0px"
	 viewBox="0 0 228 227" style="enable-background:new 0 0 228 227;" xml:space="preserve">
<style type="text/css">
	.st0{fill:#EC1C24;}
	.st1{fill:url(#SVGID_1_);}
	.st2{fill:url(#SVGID_2_);}
	.st3{fill:url(#SVGID_3_);}
	.st4{fill:url(#SVGID_4_);}
	.st5{fill:url(#SVGID_5_);}
	.st6{fill:url(#SVGID_6_);}
	.st7{fill:url(#SVGID_7_);}
	.st8{fill:url(#SVGID_8_);}
	.st9{fill:url(#SVGID_9_);}
	.st10{fill:url(#SVGID_10_);}
	.st11{fill:url(#SVGID_11_);}
	.st12{fill:url(#SVGID_12_);}
	.st13{fill:url(#SVGID_13_);}
	.st14{fill:url(#SVGID_14_);}
	.st15{fill:url(#SVGID_15_);}
	.st16{fill:url(#SVGID_16_);}
	.st17{fill:url(#SVGID_17_);}
	.st18{fill:url(#SVGID_18_);}
	.st19{fill:url(#SVGID_19_);}
	.st20{fill:#231F20;}
	.st21{fill:#90278E;}
	.st22{fill:#8BC53F;}
	.st23{fill:none;}
	.st24{fill:#652D90;}
	.st25{fill:#FFFFFF;}
</style>
<g>
	<g>
		<path class="st20" d="M112.1,147.4v9.7h-1.8V152c0-0.3-0.1-0.5-0.3-0.7c-0.2-0.2-0.4-0.3-0.6-0.3c-0.4,0-0.9,0.5-1.5,1.5
			c-0.4,0.7-0.7,1.4-1,2.1c-0.6,0.8-1.3,1.3-2.2,1.3c-0.4,0-1-0.2-1.8-0.7v-2c0.7,0.6,1.2,0.9,1.6,0.9c0.4,0,0.8-0.4,1.2-1.1
			c0.4-0.7,0.5-1.2,0.5-1.7c0-1.5-0.9-2.8-2.7-3.8h-1.4v-1.6h11.1v1.6H112.1z M110.3,147.4h-3.9c0.7,0.7,1.1,1.4,1.4,2.3
			c0.5-0.4,0.9-0.6,1.4-0.6c0.4,0,0.8,0.2,1.1,0.5V147.4z"/>
		<path class="st20" d="M122.8,147.4v9.8h-1.6c-0.6-1-1.8-2-3.4-2.9c-1.7-0.9-3.1-1.4-4.3-1.4l-0.5-1.9c0.8-0.6,2.1-1.3,4-2
			c0.7-0.3,2.1-0.8,4.1-1.6h-8.9v-1.6h12v1.6H122.8z M121,149.5c-1.2,0.4-2.8,1.1-4.9,2.1c1.9,0.7,3.5,1.7,4.9,2.9V149.5z"/>
		<path class="st20" d="M132.4,147.4v9.7h-1.8V152c0-0.3-0.1-0.5-0.3-0.7c-0.2-0.2-0.4-0.3-0.6-0.3c-0.4,0-0.9,0.5-1.5,1.5
			c-0.4,0.7-0.7,1.4-1,2.1c-0.6,0.8-1.3,1.3-2.2,1.3c-0.4,0-1-0.2-1.8-0.7v-2c0.7,0.6,1.2,0.9,1.6,0.9c0.4,0,0.8-0.4,1.2-1.1
			c0.4-0.7,0.5-1.2,0.5-1.7c0-1.5-0.9-2.8-2.7-3.8h-1.4v-1.6h11.1v1.6H132.4z M130.6,147.4h-3.9c0.7,0.7,1.1,1.4,1.4,2.3
			c0.5-0.4,0.9-0.6,1.4-0.6c0.4,0,0.8,0.2,1.1,0.5V147.4z"/>
		<path class="st20" d="M137,150.5c0-0.3-0.1-0.6-0.4-1c-0.3-0.4-0.6-0.7-0.9-0.8c-0.3-0.1-0.7-0.1-1.2-0.1c-0.2,0-0.6,0-1.1,0v-1.2
			h-1v-1.6h12.4v1.6h-1.3v9.8h-1.8V156c0-0.8-0.6-1.6-1.7-2.5c-1.1-0.8-2-1.2-2.8-1.2c-0.4,0-0.8,0.1-1.1,0.3
			c-0.4,0.2-0.6,0.5-0.6,0.9c0,0.3,0.1,0.5,0.4,0.7c0.3,0.2,0.5,0.3,0.8,0.3c0.2,0,0.7-0.2,1.4-0.5l0.5,1.7
			c-0.8,0.4-1.5,0.6-2.1,0.6c-0.8,0-1.5-0.3-2.1-0.9c-0.6-0.6-0.9-1.3-0.9-2.1c0-1,0.4-1.7,1.1-2.3C135.2,150.7,136,150.5,137,150.5
			z M141.6,147.4h-4.8c1.4,0.9,2.1,2.1,2.2,3.4c0.8,0.3,1.7,1,2.6,2V147.4z"/>
		<path class="st20" d="M154,147.4v9.8h-1.6c-1.6-1.3-4.1-2.3-7.5-3.1l-0.5-1.8l4.1-1.8c-0.4-0.5-1-0.9-1.8-1.3
			c-0.7-0.3-1.5-0.5-2.2-0.5v-1.4h-1.1v-1.6h11.9v1.6H154z M152.2,147.4h-4.9c1.6,0.9,2.7,1.8,3.1,2.6v1.7l-2.6,1.2
			c1.7,0.7,3.2,1.4,4.4,2.1V147.4z M149.8,158.8c-0.9-0.4-1.7-0.7-2.5-0.9l0.3-1.6c1,0.1,2,0.5,3,1.2L149.8,158.8z"/>
	</g>
	<g>
		<path class="st21" d="M116.8,44.4c7.6,0,14.9,1.2,21.7,3.5l7.2-4.9c-8.9-3.7-18.6-5.7-28.8-5.7c-27.4,0-51.4,14.5-64.9,36.3h8.5
			C72.9,55.9,93.5,44.4,116.8,44.4z"/>
		<path class="st21" d="M185.5,106c0.3,2.5,0.4,5,0.4,7.5c0,38.1-31,69.1-69.1,69.1c-23.2,0-43.8-11.5-56.4-29.1h-8.5
			c13.4,21.7,37.5,36.3,64.9,36.3c42,0,76.2-34.2,76.2-76.2c0-4.1-0.3-8.1-1-12L185.5,106z"/>
	</g>
	<path class="st22" d="M162.8,92.4l6.5,0.1c0.1-6-1.7-11.7-5.1-16.6c-3.6-5.2-8.6-8.9-14.6-10.9l-2,6.2c4.6,1.5,8.5,4.4,11.3,8.4
		C161.5,83.4,162.9,87.8,162.8,92.4"/>
	<path class="st23" d="M162.8,92.4l6.5,0.1c0.1-6-1.7-11.7-5.1-16.6c-3.6-5.2-8.6-8.9-14.6-10.9l-2,6.2c4.6,1.5,8.5,4.4,11.3,8.4
		C161.5,83.4,162.9,87.8,162.8,92.4z"/>
	<path class="st22" d="M177.6,66.9c-5.9-8.6-14.3-14.8-24.2-18.1l-2,6.2c8.5,2.8,15.8,8.2,20.9,15.6c4.9,7,7.4,15.3,7.3,23.8
		l6.5,0.1C186.2,84.5,183.3,75,177.6,66.9"/>
	<path class="st23" d="M177.6,66.9c-5.9-8.6-14.3-14.8-24.2-18.1l-2,6.2c8.5,2.8,15.8,8.2,20.9,15.6c4.9,7,7.4,15.3,7.3,23.8
		l6.5,0.1C186.2,84.5,183.3,75,177.6,66.9z"/>
	<g>
		<path class="st21" d="M88.7,108.8H77.6c-0.8,0-1.3-0.5-1.3-1v-6.2c0-0.5,0.5-1,1.3-1h22.8c1,0,1.6,0.8,1,1.6V102l-8,14.1
			c5.2,1.8,7.9,6.5,7.9,12.8c0,9.1-6.6,12.9-13.5,12.9c-6.9,0-12.9-4.8-12.9-12.3c0-0.5,0.5-1,1.3-1h6.4c0.7,0,1.2,0.5,1.2,1
			c0,2.4,2,3.8,4,3.8c2.9,0,4.5-2.5,4.5-5c0-3.1-1.9-5.4-4.7-5.6h-5.2c-1,0-1.7-0.8-1.1-1.6v0.1L88.7,108.8z"/>
		<path class="st21" d="M117.4,108.8h-11.1c-0.8,0-1.3-0.5-1.3-1v-6.2c0-0.5,0.5-1,1.3-1h22.8c1,0,1.6,0.8,1,1.6V102l-8,14.1
			c5.2,1.8,7.9,6.5,7.9,12.8c0,9.1-6.6,12.9-13.5,12.9c-6.9,0-12.9-4.8-12.9-12.3c0-0.5,0.5-1,1.3-1h6.4c0.7,0,1.2,0.5,1.2,1
			c0,2.4,2,3.8,4,3.8c2.9,0,4.5-2.5,4.5-5c0-3.1-1.9-5.4-4.7-5.6h-5.2c-1,0-1.7-0.8-1.1-1.6v0.1L117.4,108.8z"/>
		<path class="st21" d="M146.2,108.8H135c-0.8,0-1.3-0.5-1.3-1v-6.2c0-0.5,0.5-1,1.3-1h22.8c1,0,1.6,0.8,1,1.6V102l-8,14.1
			c5.2,1.8,7.9,6.5,7.9,12.8c0,9.1-6.6,12.9-13.5,12.9c-6.9,0-12.9-4.8-12.9-12.3c0-0.5,0.5-1,1.3-1h6.4c0.7,0,1.2,0.5,1.2,1
			c0,2.4,2,3.8,4,3.8c2.9,0,4.5-2.5,4.5-5c0-3.1-1.9-5.4-4.7-5.6h-5.2c-1,0-1.7-0.8-1.1-1.6v0.1L146.2,108.8z"/>
	</g>
	<g>
		<path class="st20" d="M75.2,85.3v-1.5h11.6v1.5L75.2,85.3z M81.5,94.4c-1.3,0-2.4-0.4-3.3-1.3c-0.6-0.6-1.3-1.6-2.1-3.1l1-1.3
			c1.4,2.7,2.8,4.1,4,4.1c0.8,0,1.5-0.3,2.1-0.8s0.8-1.2,0.8-2c0-0.7-0.3-1.4-0.8-2c-0.6-0.6-1.2-0.9-1.9-0.9c-0.7,0-1,0.2-1,0.7
			c0,0.5,0.4,0.8,1.3,0.8L80.6,90c-0.6,0-1.2-0.3-1.6-0.7c-0.4-0.4-0.7-1-0.7-1.6c0-0.7,0.3-1.3,0.9-1.7c0.5-0.4,1.2-0.6,1.9-0.6
			c1.2,0,2.2,0.4,3.1,1.3c0.9,0.9,1.4,1.9,1.4,3.1c0,1.4-0.3,2.5-1,3.3C83.9,94,82.8,94.4,81.5,94.4z"/>
		<path class="st20" d="M94.5,85.3v9.1H93c-1.7-1.4-3.8-2.3-6.2-2.7l-0.7-2c0.9-0.1,1.8-0.3,2.7-0.8c1.1-0.6,1.6-1.3,1.6-2.1
			c0-0.4-0.1-0.7-0.4-1c-0.3-0.3-0.6-0.4-1-0.4c-0.3,0-0.5,0.1-0.7,0.2c-0.2,0.2-0.3,0.4-0.3,0.6c0,0.3,0.2,0.4,0.6,0.4
			c0.1,0,0.3,0,0.5,0l-0.6,1.5c-1.5,0-2.3-0.7-2.3-2c0-0.7,0.3-1.3,0.9-1.7c0.5-0.4,1.2-0.6,2-0.6c0.8,0,1.6,0.3,2.2,0.9
			c0.6,0.6,0.9,1.3,0.9,2.2c0,0.8-0.3,1.5-0.8,2.1c-0.4,0.4-1,0.9-1.8,1.4c1.1,0.4,2.2,1.1,3.4,1.9v-8.5h3v1.5H94.5z"/>
		<path class="st20" d="M98.5,85.3c-0.6,0.8-0.9,1.5-0.9,2c0,0.6,0.2,1.4,0.7,2.5c0.4,1.1,0.7,1.9,0.7,2.5c0,0.9-0.4,1.5-1.2,1.9
			c-0.5,0.3-1.3,0.5-2.3,0.6l0.2-1.5c1.1-0.2,1.6-0.6,1.6-1.2c0-0.5-0.2-1.2-0.7-2.2c-0.5-1-0.7-1.8-0.7-2.3c0-0.6,0.3-1.4,0.8-2.3
			h-2.1v-1.5h5.4v1.5H98.5z"/>
	</g>
	<g>
		<path class="st20" d="M108.2,94.5c-2.6,0-4.7-1.6-6.2-4.9l1-1.3c1.3,3,2.9,4.6,4.8,4.6c0.5,0,0.9-0.1,1.2-0.4
			c0.4-0.3,0.6-0.6,0.6-1.1c0-1-0.4-1.5-1.3-1.5c-0.3,0-0.7,0.1-1.1,0.4l-0.6-1.6c0.5-0.4,0.9-0.6,1.4-0.6c0.1,0,0.2,0,0.4,0.1
			c0.5-0.2,0.8-0.7,0.8-1.4c0-0.4-0.2-0.8-0.5-1.1c-0.3-0.3-0.7-0.5-1.1-0.5c-0.3,0-0.6,0.1-0.9,0.2c-0.3,0.1-0.5,0.4-0.5,0.6
			c0,0.2,0.1,0.3,0.3,0.3c0.1,0,0.4,0.1,0.9,0.1l-0.8,1.3c-0.2,0.1-0.4,0.1-0.4,0.1c-0.4,0-0.8-0.2-1.1-0.5
			c-0.3-0.3-0.5-0.7-0.5-1.1c0-0.8,0.3-1.4,0.9-1.9c0.6-0.5,1.2-0.7,2-0.7c0.9,0,1.7,0.3,2.4,0.9c0.7,0.6,1,1.4,1,2.3
			c0,0.8-0.3,1.5-0.8,1.9c0.8,0.7,1.2,1.6,1.2,2.7c0,0.8-0.3,1.5-1,2.1C109.8,94.2,109,94.5,108.2,94.5z"/>
	</g>
	<g>
		<path class="st20" d="M116.5,90.1c0,0.6,0.1,1.2,0.3,1.7c0.3,0.7,0.7,1.1,1.3,1.1c0.2,0,0.6-0.1,1-0.4l0.6,1.5
			c-0.5,0.3-1,0.5-1.5,0.5c-2.2,0-3.2-1.6-3.2-4.9c0-1.8,1.2-3.7,3.5-5.8h2.1v1.5c-1.1,0.2-2.1,0.7-2.9,1.7
			C116.9,87.9,116.5,88.9,116.5,90.1z"/>
		<path class="st20" d="M127.9,85.3v9h-1.7v-4.8c0-0.2-0.1-0.5-0.2-0.7c-0.2-0.2-0.4-0.3-0.6-0.3c-0.4,0-0.8,0.5-1.4,1.4
			c-0.3,0.7-0.7,1.3-1,2c-0.5,0.8-1.2,1.2-2,1.2c-0.4,0-1-0.2-1.7-0.7v-1.9c0.6,0.6,1.1,0.9,1.5,0.9c0.4,0,0.7-0.3,1.1-1
			c0.3-0.6,0.5-1.1,0.5-1.5c0-1.4-0.8-2.6-2.5-3.5h-1.3v-1.5h10.3v1.5H127.9z M126.2,85.3h-3.6c0.6,0.6,1.1,1.3,1.3,2.2
			c0.4-0.4,0.9-0.6,1.3-0.6c0.4,0,0.7,0.1,1,0.4V85.3z"/>
		<path class="st20" d="M137.8,85.3v9.1h-1.5c-0.6-0.9-1.6-1.8-3.2-2.7c-1.5-0.8-2.9-1.3-4-1.3l-0.5-1.8c0.7-0.5,1.9-1.2,3.7-1.9
			c0.6-0.3,1.9-0.8,3.8-1.5h-8.3v-1.5H139v1.5H137.8z M136.1,87.2c-1.1,0.4-2.6,1-4.6,2c1.7,0.7,3.3,1.6,4.6,2.6V87.2z"/>
		<path class="st20" d="M140.8,85.3v9.1h-1.7v-9.1h-1.5v-1.5h4.5v1.5H140.8z"/>
	</g>
	<path class="st24" d="M64,79.7H38.8c-2.1,0-3.8,2.1-3.8,4.6v58.3c0,2.5,1.7,4.6,3.8,4.6H64c2.1,0,3.8-2.1,3.8-4.6V84.3
		C67.8,81.8,66.1,79.7,64,79.7 M44.2,142h-4.1c-0.8,0-1.4-0.7-1.4-1.7c0-0.9,0.6-1.7,1.4-1.7h4.1c0.8,0,1.4,0.7,1.4,1.7
		C45.6,141.2,45,142,44.2,142 M44.2,135.6h-4.1c-0.8,0-1.4-0.7-1.4-1.7c0-0.9,0.6-1.7,1.4-1.7h4.1c0.8,0,1.4,0.7,1.4,1.7
		C45.6,134.9,45,135.6,44.2,135.6 M44.2,129.3h-4.1c-0.8,0-1.4-0.7-1.4-1.7c0-0.9,0.6-1.7,1.4-1.7h4.1c0.8,0,1.4,0.7,1.4,1.7
		C45.6,128.5,45,129.3,44.2,129.3 M44.2,122.9h-4.1c-0.8,0-1.4-0.7-1.4-1.7c0-0.9,0.6-1.7,1.4-1.7h4.1c0.8,0,1.4,0.7,1.4,1.7
		C45.6,122.2,45,122.9,44.2,122.9 M53.5,142h-4.1c-0.8,0-1.4-0.7-1.4-1.7c0-0.9,0.6-1.7,1.4-1.7h4.1c0.8,0,1.4,0.7,1.4,1.7
		C54.8,141.2,54.2,142,53.5,142 M53.5,135.6h-4.1c-0.8,0-1.4-0.7-1.4-1.7c0-0.9,0.6-1.7,1.4-1.7h4.1c0.8,0,1.4,0.7,1.4,1.7
		C54.8,134.9,54.2,135.6,53.5,135.6 M53.5,129.3h-4.1c-0.8,0-1.4-0.7-1.4-1.7c0-0.9,0.6-1.7,1.4-1.7h4.1c0.8,0,1.4,0.7,1.4,1.7
		C54.8,128.5,54.2,129.3,53.5,129.3 M53.5,122.9h-4.1c-0.8,0-1.4-0.7-1.4-1.7c0-0.9,0.6-1.7,1.4-1.7h4.1c0.8,0,1.4,0.7,1.4,1.7
		C54.8,122.2,54.2,122.9,53.5,122.9 M62.7,142h-4.1c-0.8,0-1.4-0.7-1.4-1.7c0-0.9,0.6-1.7,1.4-1.7h4.1c0.8,0,1.4,0.7,1.4,1.7
		C64,141.2,63.4,142,62.7,142 M62.7,135.6h-4.1c-0.8,0-1.4-0.7-1.4-1.7c0-0.9,0.6-1.7,1.4-1.7h4.1c0.8,0,1.4,0.7,1.4,1.7
		C64,134.9,63.4,135.6,62.7,135.6 M62.7,129.3h-4.1c-0.8,0-1.4-0.7-1.4-1.7c0-0.9,0.6-1.7,1.4-1.7h4.1c0.8,0,1.4,0.7,1.4,1.7
		C64,128.5,63.4,129.3,62.7,129.3 M62.7,122.9h-4.1c-0.8,0-1.4-0.7-1.4-1.7c0-0.9,0.6-1.7,1.4-1.7h4.1c0.8,0,1.4,0.7,1.4,1.7
		C64,122.2,63.4,122.9,62.7,122.9 M64.1,115.7H38.7V85.1h25.5V115.7z"/>
	<g>
		<path class="st22" d="M58,96.8c-0.4-2-1.8-5.7-6.7-5.9l0.5,5.1c0,0,0,0.1,0,0.1c1.2,0.1,2.2,1.1,2.2,2.4c0,0.8-0.4,1.4-0.9,1.8
			l2.9,2.7l0.5,0.1c0.3,0.1,0.4,0.3,0.4,0.6l0,0c-0.1,0.3-0.3,0.5-0.6,0.4l-0.7-0.1c-0.2,0-0.3-0.2-0.4-0.4l-3.1-2.9
			c-0.2,0.1-0.4,0.1-0.6,0.1c-1.3,0-2.4-1.1-2.4-2.4c0-1,0.6-1.8,1.4-2.2c0,0-0.1-0.1-0.1-0.1L50.1,91c-3.4,0.4-5.8,3-5.8,6.9
			c0,1.9,1.3,4.3,2.3,5.6l-1.7,5.2l8.5,2.3v-4.9c2.4,0,4.4-0.1,4.5-1c0.1-0.7,0.2-1.3,0.2-1.9l-1.2-0.8l1.3-0.1
			c0.1-0.6,0.1-0.9,0.1-1.4c0.5,0,0.8-0.1,1.5-0.1C61.2,100.6,58.8,98.1,58,96.8z"/>
		<path class="st25" d="M51.3,90.9l0-0.2c0-0.2-0.1-0.3-0.3-0.2l-0.7,0.1c-0.2,0-0.3,0.1-0.2,0.3l0,0.1c0.3,0,0.6-0.1,0.9-0.1
			C51.1,90.9,51.2,90.9,51.3,90.9z"/>
	</g>
</g>
</svg>
