<?xml version="1.0" encoding="utf-8"?>
<!-- Generator: Adobe Illustrator 24.0.1, SVG Export Plug-In . SVG Version: 6.00 Build 0)  -->
<svg version="1.1" id="Layer_1" xmlns="http://www.w3.org/2000/svg" xmlns:xlink="http://www.w3.org/1999/xlink" x="0px" y="0px"
	 viewBox="0 0 228 227" style="enable-background:new 0 0 228 227;" xml:space="preserve">
<style type="text/css">
	.st0{fill:#EC1C24;}
	.st1{fill:url(#SVGID_1_);}
	.st2{fill:url(#SVGID_2_);}
	.st3{fill:url(#SVGID_3_);}
	.st4{fill:url(#SVGID_4_);}
	.st5{fill:url(#SVGID_5_);}
	.st6{fill:url(#SVGID_6_);}
	.st7{fill:url(#SVGID_7_);}
	.st8{fill:url(#SVGID_8_);}
	.st9{fill:url(#SVGID_9_);}
	.st10{fill:url(#SVGID_10_);}
	.st11{fill:url(#SVGID_11_);}
	.st12{fill:url(#SVGID_12_);}
	.st13{fill:url(#SVGID_13_);}
	.st14{fill:url(#SVGID_14_);}
	.st15{fill:url(#SVGID_15_);}
	.st16{fill:url(#SVGID_16_);}
	.st17{fill:url(#SVGID_17_);}
	.st18{fill:url(#SVGID_18_);}
	.st19{fill:url(#SVGID_19_);}
	.st20{fill:#231F20;}
	.st21{fill:#90278E;}
	.st22{fill:#8BC53F;}
	.st23{fill:none;}
	.st24{fill:#652D90;}
	.st25{fill:#FFFFFF;}
</style>
<g>
	<g>
		<g>
			<path class="st0" d="M74.5,140.7c-7.7,0-11.5-3.8-11.5-11.5c0-7.7,3.8-11.5,11.5-11.5h4.3c7.7,0,11.5,3.8,11.5,11.5v11.5
				c0,9.6-4.8,14.4-14.4,14.4H65.3l-0.9-8.7H76c3.8,0,5.8-1.9,5.8-5.8H74.5z M81.8,132.1v-2.9c0-1.9-1-2.9-2.9-2.9h-4.3
				c-1.9,0-2.9,1-2.9,2.9c0,1.9,1,2.9,2.9,2.9H81.8z"/>
		</g>
		<g>
			<path class="st0" d="M104.8,140.7c-7.7,0-11.5-3.8-11.5-11.5c0-7.7,3.8-11.5,11.5-11.5h4.3c7.7,0,11.5,3.8,11.5,11.5v11.5
				c0,9.6-4.8,14.4-14.4,14.4H95.6l-0.9-8.7h11.5c3.8,0,5.8-1.9,5.8-5.8H104.8z M112.1,132.1v-2.9c0-1.9-1-2.9-2.9-2.9h-4.3
				c-1.9,0-2.9,1-2.9,2.9c0,1.9,1,2.9,2.9,2.9H112.1z"/>
		</g>
		<g>
			<path class="st0" d="M135.1,140.7c-7.7,0-11.5-3.8-11.5-11.5c0-7.7,3.8-11.5,11.5-11.5h4.3c7.7,0,11.5,3.8,11.5,11.5v11.5
				c0,9.6-4.8,14.4-14.4,14.4h-10.7l-0.9-8.7h11.5c3.8,0,5.8-1.9,5.8-5.8H135.1z M142.3,132.1v-2.9c0-1.9-1-2.9-2.9-2.9h-4.3
				c-1.9,0-2.9,1-2.9,2.9c0,1.9,1,2.9,2.9,2.9H142.3z"/>
		</g>
	</g>
	<g>
		<path class="st0" d="M161.1,105.6c8.8,0,15.9-7.1,15.9-15.9c0-8.8-7.1-15.9-15.9-15.9V105.6z"/>
	</g>
	<g>
		<g>
			<path class="st0" d="M96.8,185H60.9c-5.5,0-10-4.5-10-10V46.7c0-5.5,4.5-10,10-10h94.5c5.5,0,10,4.5,10,10v43.8h-4.2V46.7
				c0-3.2-2.6-5.8-5.8-5.8H60.9c-3.2,0-5.8,2.6-5.8,5.8V175c0,3.2,2.6,5.8,5.8,5.8h35.9V185z"/>
		</g>
	</g>
	<g>
		<g>
			<path class="st0" d="M103.9,182.9c0,4.1-3.3,7.4-7.4,7.4c-4.1,0-7.4-3.3-7.4-7.4c0-4.1,3.3-7.4,7.4-7.4
				C100.6,175.5,103.9,178.8,103.9,182.9z"/>
		</g>
		<g>
			<path class="st0" d="M124.8,182.9c0,2.9-2.3,5.2-5.2,5.2c-2.9,0-5.2-2.3-5.2-5.2c0-2.9,2.3-5.2,5.2-5.2
				C122.5,177.7,124.8,180,124.8,182.9z"/>
		</g>
		<g>
			<path class="st0" d="M141.9,182.9c0,2-1.6,3.6-3.6,3.6c-2,0-3.6-1.6-3.6-3.6c0-2,1.6-3.5,3.6-3.5
				C140.3,179.3,141.9,180.9,141.9,182.9z"/>
		</g>
	</g>
	<g>
		<path d="M70.1,62.1c0-1.3-0.5-1.9-1.6-1.9c-1.1,0-1.7,0.6-1.7,1.9v7.5h-2.8v-7.5c0-3.1,1.5-4.7,4.5-4.7c2.9,0,4.4,1.6,4.4,4.7v7.5
			h-2.8V62.1z"/>
		<path d="M82.8,62.1v7.5h-2.8v-2.8h-3.3v2.8h-2.8v-7.5c0-3.1,1.5-4.7,4.5-4.7C81.3,57.4,82.8,59,82.8,62.1z M78.3,60.2
			c-1.1,0-1.7,0.6-1.7,1.9V64h3.3v-1.9C79.9,60.8,79.4,60.2,78.3,60.2z"/>
		<path d="M92.2,57.4v2.8h-2.8v9.4h-2.8v-9.4h-2.8v-2.8H92.2z"/>
		<path d="M95.9,57.4v12.2h-2.8V57.4H95.9z"/>
		<path d="M107.7,63.5c0,4.1-1.8,6.1-5.4,6.1c-3.6,0-5.5-2-5.5-6.1c0-4.1,1.8-6.1,5.5-6.1C105.9,57.4,107.7,59.4,107.7,63.5z
			 M102.3,60.2c-1.8,0-2.6,1.1-2.6,3.3c0,2.2,0.9,3.3,2.6,3.3c1.7,0,2.5-1.1,2.5-3.3C104.8,61.3,104,60.2,102.3,60.2z"/>
		<path d="M114.7,62.1c0-1.3-0.5-1.9-1.6-1.9c-1.1,0-1.7,0.6-1.7,1.9v7.5h-2.8v-7.5c0-3.1,1.5-4.7,4.5-4.7c2.9,0,4.4,1.6,4.4,4.7
			v7.5h-2.8V62.1z"/>
		<path d="M127.4,62.1v7.5h-2.8v-2.8h-3.3v2.8h-2.8v-7.5c0-3.1,1.5-4.7,4.5-4.7C125.9,57.4,127.4,59,127.4,62.1z M123,60.2
			c-1.1,0-1.7,0.6-1.7,1.9V64h3.3v-1.9C124.6,60.8,124.1,60.2,123,60.2z"/>
		<path d="M128.3,69.6V57.4h2.8v9.4h4.7l-0.3,2.8H128.3z"/>
		<path d="M71.2,73.9l0.3,2.8h-4.7v1.9h3.8v2.8h-3.8v1.9h4.7l-0.3,2.8h-7.2V73.9H71.2z"/>
		<path d="M80.9,78.2v8h-2.8v-8c0-0.9-0.5-1.4-1.4-1.4s-1.4,0.5-1.4,1.4v8h-2.8v-8c0-2.8,1.4-4.2,4.2-4.2c1.6,0,2.5,0.5,2.8,1.4
			c0.3-0.9,1.3-1.4,2.8-1.4c2.8,0,4.2,1.4,4.2,4.2v8h-2.8v-8c0-0.9-0.5-1.4-1.4-1.4S80.9,77.2,80.9,78.2z"/>
		<path d="M94.7,73.9l0.3,2.8h-4.7v1.9H94v2.8h-3.8v1.9H95l-0.3,2.8h-7.2V73.9H94.7z"/>
		<path d="M100.6,73.9c2.8,0,4.2,1.4,4.2,4.2c0,1.9-0.5,3.1-1.6,3.6l1.6,4.4h-3.1l-1.1-3.8h-1.9v3.8h-2.8V73.9H100.6z M98.7,79.6
			h1.9c0.9,0,1.4-0.5,1.4-1.4c0-0.9-0.5-1.4-1.4-1.4h-1.9V79.6z"/>
		<path d="M111.9,83.4h0.5v-4.7h2.8v7.5h-3.3c-4.1,0-6.1-2-6.1-6.1c0-4.1,2-6.1,6.1-6.1h1.1l0.3,2.8h-1.4c-2.2,0-3.3,1.1-3.3,3.3
			C108.6,82.3,109.7,83.4,111.9,83.4z"/>
		<path d="M123.4,73.9l0.3,2.8h-4.7v1.9h3.8v2.8h-3.8v1.9h4.7l-0.3,2.8h-7.2V73.9H123.4z"/>
		<path d="M130.7,78.7c0-1.3-0.5-1.9-1.6-1.9c-1.1,0-1.7,0.6-1.7,1.9v7.5h-2.8v-7.5c0-3.1,1.5-4.7,4.5-4.7c2.9,0,4.4,1.6,4.4,4.7
			v7.5h-2.8V78.7z"/>
		<path d="M140.6,83.4h1.4l-0.3,2.8h-1.1c-4.1,0-6.1-2-6.1-6.1c0-4.1,2-6.1,6.1-6.1h1.1l0.3,2.8h-1.4c-2.2,0-3.3,1.1-3.3,3.3
			C137.3,82.3,138.4,83.4,140.6,83.4z"/>
		<path d="M145.7,77.2c0,0.9,0.5,1.4,1.4,1.4h0.5c0.9,0,1.4-0.5,1.4-1.4v-3.3h2.8v3.3c0,2.5-1,3.9-3,4.2v4.7H146v-4.7
			c-2.1-0.3-3.1-1.7-3.1-4.2v-3.3h2.8V77.2z"/>
		<path d="M64.2,102.7l-0.3-2.8h4.7c0.6,0,0.9-0.3,0.9-0.9c0-0.6-0.3-0.9-0.9-0.9h-0.9c-2.5,0-3.8-1.3-3.8-3.8
			c0-2.5,1.3-3.8,3.8-3.8h3.9l0.3,2.8h-4.2c-0.6,0-0.9,0.3-0.9,0.9c0,0.6,0.3,0.9,0.9,0.9h0.9c2.5,0,3.8,1.3,3.8,3.8
			c0,2.5-1.3,3.8-3.8,3.8H64.2z"/>
		<path d="M80.6,90.5l0.3,2.8h-4.7v1.9h3.8V98h-3.8v1.9h4.7l-0.3,2.8h-7.2V90.5H80.6z"/>
		<path d="M86.5,90.5c2.8,0,4.2,1.4,4.2,4.2c0,1.9-0.5,3.1-1.6,3.6l1.6,4.4h-3.1L86.5,99h-1.9v3.8h-2.8V90.5H86.5z M84.6,96.1h1.9
			c0.9,0,1.4-0.5,1.4-1.4c0-0.9-0.5-1.4-1.4-1.4h-1.9V96.1z"/>
		<path d="M97.8,90.5h2.8v6.6c0,3.8-1.8,5.6-5.4,5.6h-3.6V90.5h2.8v9.4h0.8c1.7,0,2.5-0.9,2.5-2.8V90.5z"/>
		<path d="M104.4,90.5v12.2h-2.8V90.5H104.4z"/>
		<path d="M111.4,99.9h1.4l-0.3,2.8h-1.1c-4.1,0-6.1-2-6.1-6.1c0-4.1,2-6.1,6.1-6.1h1.1l0.3,2.8h-1.4c-2.2,0-3.3,1.1-3.3,3.3
			C108.1,98.8,109.2,99.9,111.4,99.9z"/>
		<path d="M121,90.5l0.3,2.8h-4.7v1.9h3.8V98h-3.8v1.9h4.7l-0.3,2.8h-7.2V90.5H121z"/>
	</g>
</g>
</svg>
